<svg width="23" height="20" viewBox="0 0 23 20" fill="none" xmlns="http://www.w3.org/2000/svg">
<path d="M11.2963 3.52061e-05C7.45686 -0.0092671 4.07813 1.82561 2.14708 4.5977C2.06147 4.72096 2.15715 4.88375 2.31576 4.88375H4.08569C4.20654 4.88375 4.31983 4.83491 4.39536 4.74886C4.5716 4.55119 4.76042 4.36049 4.95932 4.1791C5.78008 3.42329 6.73428 2.82794 7.79674 2.41398C8.89445 1.98608 10.0627 1.76747 11.2686 1.76747C12.4746 1.76747 13.6428 1.98375 14.7405 2.41398C15.803 2.82794 16.7572 3.42329 17.5779 4.1791C18.3987 4.93491 19.0407 5.8163 19.4914 6.79537C19.9571 7.80932 20.1913 8.88607 20.1913 10C20.1913 11.114 19.9546 12.1907 19.4914 13.2047C19.0432 14.1837 18.3987 15.0651 17.5779 15.8209C16.7572 16.5767 15.803 17.1721 14.7405 17.5861C13.6419 18.0147 12.4612 18.2345 11.2686 18.2326C10.0627 18.2326 8.89445 18.014 7.79674 17.5861C6.73637 17.1725 5.7728 16.5731 4.95932 15.8209C4.76042 15.6372 4.57412 15.4465 4.39536 15.2512C4.31983 15.1651 4.20402 15.1163 4.08569 15.1163H2.31576C2.15715 15.1163 2.05896 15.2791 2.14708 15.4023C4.07562 18.1674 7.43923 20 11.2686 20C17.2154 20 22.0443 15.5791 22.1047 10.1023C22.1651 4.53724 17.3287 0.0139887 11.2963 3.52061e-05ZM8.10692 12.6047V10.8372H0.201414C0.0906364 10.8372 0 10.7535 0 10.6512V9.34886C0 9.24653 0.0906364 9.16281 0.201414 9.16281H8.10692V7.39537C8.10692 7.23956 8.3033 7.15119 8.43422 7.24886L12.0068 9.85351C12.0309 9.87091 12.0503 9.89315 12.0637 9.91853C12.0771 9.94391 12.0841 9.97178 12.0841 10C12.0841 10.0283 12.0771 10.0561 12.0637 10.0815C12.0503 10.1069 12.0309 10.1291 12.0068 10.1465L8.43422 12.7512C8.3033 12.8465 8.10692 12.7605 8.10692 12.6047Z" fill="white"/>
</svg>
