<svg width="29" height="24" viewBox="0 0 29 24" fill="none" xmlns="http://www.w3.org/2000/svg">
<path d="M4.68747 1.00003H25C26.2432 1.00003 27.1209 1.06257 28 2.00026C28.8791 2.93794 28.6875 3.67395 28.6875 5.00003V20C28.6875 21.3261 28.8791 22.0623 28 23C27.1209 23.9377 26.2432 24 25 24H4.68747C3.44427 24 2.87908 23.9377 2 23C1.12092 22.0623 0.999971 21.3261 0.999971 20V5.00003C0.999971 3.67395 0.892769 2.76074 1.77185 1.82305C2.65092 0.885372 3.44427 1.00003 4.68747 1.00003ZM4.68747 1.6667C3.92497 1.6667 2.54219 2.515 2 3L14.8437 11.8667L27.5 3C26.9384 2.49736 25.7331 1.66567 25 1.6667H4.68747ZM14.8437 12.8534L1.77185 3.80003C1.63323 4.18282 1.56224 4.58968 1.56247 5.00003V20C1.56247 20.8841 1.89171 21.7319 2.47776 22.3571C3.06381 22.9822 3.85867 23.3334 4.68747 23.3334H25C25.8288 23.3334 26.9139 23.1251 27.5 22.5C28.0861 21.8749 28.125 20.8841 28.125 20V5.00003C28.125 4.5767 28.0515 4.1717 27.9156 3.80003L14.8437 12.8517V12.8534Z" fill="white"/>
</svg>
