<svg width="25" height="25" viewBox="0 0 25 25" fill="none" xmlns="http://www.w3.org/2000/svg">
<path d="M12.5 25C19.3922 25 25 19.3922 25 12.5C25 5.60781 19.3922 0 12.5 0C5.60781 0 0 5.60781 0 12.5C0 19.3922 5.60781 25 12.5 25ZM12.5 0.78125C18.9617 0.78125 24.2188 6.03828 24.2188 12.5C24.2188 18.9617 18.9617 24.2188 12.5 24.2188C6.03828 24.2188 0.78125 18.9617 0.78125 12.5C0.78125 6.03828 6.03828 0.78125 12.5 0.78125Z" fill="white"/>
<path d="M15.6727 17.0063C15.7088 17.0429 15.7519 17.0719 15.7994 17.0917C15.8468 17.1115 15.8978 17.1217 15.9492 17.1217C16.0007 17.1217 16.0516 17.1115 16.0991 17.0917C16.1465 17.0719 16.1896 17.0429 16.2258 17.0063C16.299 16.933 16.3402 16.8337 16.3402 16.7301C16.3402 16.6265 16.299 16.5272 16.2258 16.454L12.5 12.729V7.28052C12.5 7.17692 12.4588 7.07756 12.3856 7.0043C12.3123 6.93105 12.213 6.88989 12.1094 6.88989C12.0058 6.88989 11.9064 6.93105 11.8332 7.0043C11.7599 7.07756 11.7188 7.17692 11.7188 7.28052V12.8907C11.7188 12.9946 11.7602 13.0938 11.8328 13.1672L15.6727 17.0063Z" fill="white"/>
<path d="M3.125 13.2812C3.55647 13.2812 3.90625 12.9315 3.90625 12.5C3.90625 12.0685 3.55647 11.7188 3.125 11.7188C2.69353 11.7188 2.34375 12.0685 2.34375 12.5C2.34375 12.9315 2.69353 13.2812 3.125 13.2812Z" fill="white"/>
<path d="M21.875 13.2812C22.3065 13.2812 22.6562 12.9315 22.6562 12.5C22.6562 12.0685 22.3065 11.7188 21.875 11.7188C21.4435 11.7188 21.0938 12.0685 21.0938 12.5C21.0938 12.9315 21.4435 13.2812 21.875 13.2812Z" fill="white"/>
<path d="M12.5 3.90625C12.9315 3.90625 13.2812 3.55647 13.2812 3.125C13.2812 2.69353 12.9315 2.34375 12.5 2.34375C12.0685 2.34375 11.7188 2.69353 11.7188 3.125C11.7188 3.55647 12.0685 3.90625 12.5 3.90625Z" fill="white"/>
<path d="M12.5 22.6562C12.9315 22.6562 13.2812 22.3065 13.2812 21.875C13.2812 21.4435 12.9315 21.0938 12.5 21.0938C12.0685 21.0938 11.7188 21.4435 11.7188 21.875C11.7188 22.3065 12.0685 22.6562 12.5 22.6562Z" fill="white"/>
<path d="M6.25 7.03125C6.68147 7.03125 7.03125 6.68147 7.03125 6.25C7.03125 5.81853 6.68147 5.46875 6.25 5.46875C5.81853 5.46875 5.46875 5.81853 5.46875 6.25C5.46875 6.68147 5.81853 7.03125 6.25 7.03125Z" fill="white"/>
<path d="M18.75 19.5312C19.1815 19.5312 19.5312 19.1815 19.5312 18.75C19.5312 18.3185 19.1815 17.9688 18.75 17.9688C18.3185 17.9688 17.9688 18.3185 17.9688 18.75C17.9688 19.1815 18.3185 19.5312 18.75 19.5312Z" fill="white"/>
<path d="M19.5312 7.03125C19.9627 7.03125 20.3125 6.68147 20.3125 6.25C20.3125 5.81853 19.9627 5.46875 19.5312 5.46875C19.0998 5.46875 18.75 5.81853 18.75 6.25C18.75 6.68147 19.0998 7.03125 19.5312 7.03125Z" fill="white"/>
<path d="M6.25 19.5312C6.68147 19.5312 7.03125 19.1815 7.03125 18.75C7.03125 18.3185 6.68147 17.9688 6.25 17.9688C5.81853 17.9688 5.46875 18.3185 5.46875 18.75C5.46875 19.1815 5.81853 19.5312 6.25 19.5312Z" fill="white"/>
</svg>
