<svg width="30" height="30" viewBox="0 0 30 30" fill="none" xmlns="http://www.w3.org/2000/svg">
<path d="M18.75 29.502V20.625H20.625C21.1523 20.625 21.5967 20.5029 21.958 20.2588C22.3193 20.0146 22.5 19.7168 22.5 19.3652V18.1348C22.5 17.7832 22.3193 17.4854 21.958 17.2412C21.5967 16.9971 21.1523 16.875 20.625 16.875H18.75V13.125C18.75 12.5977 18.9355 12.1533 19.3066 11.792C19.6777 11.4307 20.1221 11.25 20.6396 11.25C21.1572 11.25 21.5967 11.1279 21.958 10.8838C22.3193 10.6396 22.5 10.3418 22.5 9.99023V8.75977C22.5 8.4082 22.3193 8.11035 21.958 7.86621C21.5967 7.62207 21.1523 7.5 20.625 7.5C18.5547 7.5 17.0996 7.91992 16.2598 8.75977C15.4199 9.59961 15 11.0547 15 13.125V16.875C14.4922 16.875 14.0527 16.9971 13.6816 17.2412C13.3105 17.4854 13.125 17.7832 13.125 18.1348V19.3652C13.125 19.7168 13.3105 20.0146 13.6816 20.2588C14.0527 20.5029 14.4922 20.625 15 20.625V30C12.9688 30 11.0254 29.6045 9.16992 28.8135C7.31445 28.0225 5.71777 26.958 4.37988 25.6201C3.04199 24.2822 1.97754 22.6855 1.18652 20.8301C0.395508 18.9746 0 17.0312 0 15C0 12.9688 0.395508 11.0254 1.18652 9.16992C1.97754 7.31445 3.04199 5.71777 4.37988 4.37988C5.71777 3.04199 7.31445 1.97754 9.16992 1.18652C11.0254 0.395508 12.9688 0 15 0C17.0312 0 18.9746 0.395508 20.8301 1.18652C22.6855 1.97754 24.2822 3.04199 25.6201 4.37988C26.958 5.71777 28.0225 7.31445 28.8135 9.16992C29.6045 11.0254 30 12.9688 30 15C30 18.457 28.9404 21.5283 26.8213 24.2139C24.7021 26.8994 22.0117 28.6621 18.75 29.502Z" fill="#FCFCFF"/>
</svg>
