<svg width="190" height="190" viewBox="0 0 190 190" fill="none" xmlns="http://www.w3.org/2000/svg">
<g clip-path="url(#clip0)">
<path d="M122.035 6.69416C118.57 2.37723 113.749 0 108.46 0C100.715 0 95.4498 4.02266 92.6643 6.91867C89.8785 4.02228 84.6135 0 76.8687 0C71.5792 0 66.7583 2.37723 63.2934 6.69416C60.0667 10.7146 58.2896 16.0572 58.2896 21.7379C58.2896 30.1632 62.5159 46.5737 90.8219 61.8183C91.3985 62.1285 92.0313 62.284 92.664 62.284C93.2967 62.284 93.9301 62.1285 94.5072 61.8179C122.812 46.5737 127.039 30.1632 127.039 21.7379C127.039 16.0572 125.262 10.7146 122.035 6.69416ZM92.6643 56.4842C74.0774 46.2858 63.8563 33.9684 63.8563 21.7379C63.856 12.5185 69.4502 5.56641 76.8687 5.56641C84.4825 5.56641 88.9074 10.8493 90.0823 12.4684C90.0823 12.4688 90.0823 12.4687 90.0823 12.4687C90.6808 13.2937 91.6457 13.7858 92.664 13.7858C93.6823 13.7858 94.6471 13.2937 95.246 12.4684C96.4209 10.8493 100.846 5.56641 108.46 5.56641C115.878 5.56641 121.472 12.5185 121.472 21.7379C121.472 33.9684 111.251 46.2862 92.6643 56.4842Z" fill="#6F6F6F"/>
<path d="M172.156 130.924C171.948 130.321 171.535 129.786 170.944 129.436L163.428 124.989C165.536 124.021 167.503 122.764 169.276 121.247C169.695 122.956 171.099 124.27 172.921 124.527C175.103 124.836 177.134 123.524 177.75 121.409C180.336 112.53 183.413 99.3325 183.386 86.876C183.382 85.3408 182.137 84.0991 180.602 84.0991C180.6 84.0991 180.598 84.0991 180.596 84.0991C179.059 84.1024 177.816 85.3512 177.819 86.8886C177.838 95.3573 176.319 104.263 174.542 111.769C173.692 90.201 169.884 87.1231 168.538 86.0347C162.268 80.9686 155.129 71.8742 155.057 71.7832C154.401 70.9431 153.321 70.552 152.28 70.7765C151.732 70.8941 138.824 73.8246 134.121 88.1971C132.382 93.5093 131.729 103.493 131.537 112.895C127.899 99.0271 124.269 77.3816 132.783 65.7429C136.95 60.0459 143.519 57.2768 152.865 57.2768C166.074 57.2768 173.861 63.2785 176.669 75.6244C177.01 77.1233 178.5 78.061 180.001 77.7211C181.499 77.3801 182.438 75.8886 182.097 74.3898C178.722 59.5527 168.614 51.71 152.865 51.71C141.774 51.71 133.506 55.3256 128.29 62.4565C116.864 78.0755 123.494 106.642 128.463 122.281C129.053 124.136 130.743 125.343 132.632 125.343C132.861 125.343 133.093 125.325 133.327 125.289C135.237 124.989 136.677 123.52 136.978 121.672C138.527 122.928 140.202 123.987 141.973 124.834V124.958L134.406 129.436C133.815 129.786 133.402 130.322 133.194 130.925C125.282 134.765 119.359 141.71 116.779 150.009C113.174 146.955 108.81 145.03 104.136 144.423V142.017C108.335 139.718 111.644 135.905 113.224 131.259C116.702 130.626 118.54 128.118 119.292 126.14C123.13 122.996 122.607 117.096 121.443 113.324C122.812 109.148 122.693 105.247 121.084 101.717C118.729 96.5482 113.816 93.7939 111.707 92.8102C107.69 86.6763 97.401 87.4664 94.9996 87.7425C92.5986 87.466 82.3053 86.6767 78.2882 92.8102C76.6019 93.5976 73.1233 95.5221 70.5932 98.9054C70.7156 98.3346 70.7828 97.7483 70.7783 97.1505L70.7449 92.5738C70.7201 89.3516 68.7833 86.5888 66.0228 85.3397C67.6552 81.543 67.2374 78.1605 66.5705 72.8316C66.4403 71.791 66.2981 70.6551 66.156 69.4023C65.4802 63.424 61.1566 58.9608 57.6483 56.2689C56.3072 55.2406 55.0725 53.9574 53.8732 52.345C48.2656 44.8121 39.3808 44.8801 35.586 44.9153L35.3838 44.9168C31.7404 44.9439 23.5875 47.4387 20.1181 54.8276C15.4928 56.0644 11.7418 59.1278 9.20572 63.7635C5.91041 69.7875 5.21832 77.8057 6.65965 81.2357C6.8207 81.6187 7.15654 82.6863 7.59221 85.5122C5.01273 86.8407 3.26859 89.5197 3.24336 92.5749L3.20996 97.1493C3.19363 99.2894 4.01152 101.307 5.51371 102.832C7.01479 104.355 9.02018 105.204 11.161 105.22L12.402 105.229C14.0307 113.179 19.4598 119.772 26.6854 123.028V124.958L19.118 129.436C18.5369 129.78 18.1268 130.302 17.9157 130.892C16.4628 131.594 15.0605 132.404 13.7301 133.32C12.4639 134.192 12.144 135.925 13.0157 137.191C13.5557 137.975 14.4255 138.396 15.311 138.396C15.855 138.396 16.4046 138.237 16.8866 137.905C17.8355 137.252 18.8315 136.671 19.8569 136.15L26.6757 147.675C27.0705 148.342 27.7266 148.815 28.4848 148.979C28.6792 149.02 28.8755 149.041 29.0711 149.041C29.6385 149.041 30.1981 148.867 30.6702 148.536L30.9214 148.36L31.3303 150.273L29.2362 172.577C29.1728 173.256 29.3602 173.935 29.7639 174.485L35.1448 181.814C35.6692 182.528 36.5023 182.95 37.3881 182.95C38.2739 182.95 39.1073 182.528 39.6313 181.814L45.0122 174.485C45.4159 173.935 45.6033 173.256 45.5399 172.577L43.4269 150.067L43.7998 148.322L44.1037 148.536C44.5758 148.868 45.1354 149.041 45.7028 149.041C45.8984 149.041 46.095 149.02 46.2891 148.979C47.0473 148.815 47.7034 148.342 48.0982 147.675L54.8914 136.192C62.1864 139.933 67.3368 146.915 68.7106 155.03C65.976 159.063 64.5002 163.817 64.5002 168.788V184.434H5.56641V159.426C5.56641 154.516 6.935 149.733 9.52449 145.595C10.3398 144.292 9.94457 142.574 8.64129 141.759C7.33838 140.944 5.62096 141.339 4.80566 142.642C1.66176 147.667 0 153.471 0 159.426V187.217C0 188.754 1.24613 190 2.7832 190H187.217C188.754 190 190 188.754 190 187.217V159.426C190 147.153 183.066 136.198 172.156 130.924ZM165.713 132.809L160.127 142.251L156.52 139.719L162.516 130.917L165.713 132.809ZM152.675 135.477L147.539 127.939V126.723C149.271 127.093 151.052 127.288 152.865 127.288C154.546 127.288 156.201 127.122 157.811 126.804V127.938L152.675 135.477ZM138.925 115.947C138.26 115.284 137.645 114.572 137.087 113.825C137.287 102.323 138.092 93.9602 139.412 89.9279C142.257 81.2309 148.842 77.8439 151.878 76.711C154.269 79.633 159.81 86.1383 165.04 90.3643C165.412 90.6649 168.395 93.6848 169.027 113.285C165.331 118.58 159.353 121.722 152.865 121.722C147.6 121.722 142.648 119.671 138.925 115.947ZM142.833 130.917L148.83 139.719L145.222 142.251L139.636 132.809L142.833 130.917ZM95.0445 138.826H94.9221C88.9979 138.826 83.7384 134.968 81.8792 129.463C82.2581 128.841 82.4648 128.128 82.4648 127.381V122.951C84.2119 122.141 86.5346 120.535 87.9678 117.433C89.7587 118.155 92.1804 118.824 95.0004 118.824C97.8185 118.824 100.239 118.155 102.029 117.433C103.462 120.535 105.785 122.141 107.532 122.951V127.381C107.532 128.06 107.7 128.712 108.014 129.292C106.215 134.844 100.96 138.779 95.0445 138.826ZM91.4301 144.068C92.5679 144.279 93.7353 144.393 94.9221 144.393H95.0668C96.258 144.383 97.4288 144.259 98.5699 144.036V147.317C98.5699 149.285 96.9687 150.887 95 150.887C93.0313 150.887 91.4301 149.285 91.4301 147.317V144.068ZM73.9664 104.055C75.9603 99.6338 81.1589 97.6273 81.2012 97.611C81.8711 97.3642 82.4207 96.8688 82.7357 96.2279C84.4342 92.7734 92.0828 92.9645 94.6241 93.3044C94.8712 93.3382 95.1258 93.3378 95.3726 93.3048C97.9168 92.9649 105.562 92.773 107.261 96.2279C107.577 96.8688 108.126 97.3642 108.796 97.6114C108.848 97.6303 114.022 99.6401 116.019 104.025C117.113 106.426 117.072 109.217 115.896 112.319C115.655 112.952 115.654 113.651 115.893 114.285C116.35 115.502 117.714 120.707 115.483 122.03C114.791 122.44 114.311 123.13 114.165 123.921C114.14 124.056 113.951 124.922 113.099 125.444V120.977C113.099 119.585 112.158 118.421 110.782 118.232C110.316 118.134 107.179 117.317 106.451 112.972C106.292 112.02 105.65 111.218 104.755 110.854C103.86 110.49 102.841 110.616 102.062 111.186C102.034 111.207 99.1184 113.257 95.0004 113.257C90.8931 113.257 87.9496 111.196 87.9351 111.186C87.1562 110.616 86.1368 110.489 85.2421 110.854C84.3474 111.218 83.7054 112.02 83.5458 112.972C82.8181 117.317 79.6813 118.134 79.2148 118.232C77.8391 118.421 76.8984 119.585 76.8984 120.977V125.442C76.1841 124.998 75.9224 124.294 75.8289 123.9C75.7039 123.078 75.2318 122.455 74.5138 122.03C72.2857 120.709 73.6287 115.58 74.1078 114.286C74.3464 113.652 74.3453 112.953 74.1052 112.319C72.9337 109.23 72.8869 106.45 73.9664 104.055ZM64.584 91.4701C64.5944 91.3336 64.6059 91.2063 64.6171 91.0764C64.9637 91.4946 65.1745 92.0301 65.1789 92.6153L65.2123 97.192C65.2175 97.8448 64.9681 98.4597 64.5102 98.9247C64.0519 99.3896 63.4396 99.6483 62.7861 99.6535L61.881 99.6605L61.8495 95.3859C63.3583 94.6812 64.4538 93.2083 64.584 91.4701ZM11.2022 99.6531C10.5491 99.6483 9.93678 99.3896 9.47848 98.9247C9.02055 98.4597 8.77117 97.8448 8.77637 97.1909L8.80383 93.4377C9.3883 94.7053 10.5049 95.6531 11.862 96.016L11.888 99.6579L11.2022 99.6531ZM13.8507 90.4986C13.8455 90.5001 13.8399 90.5012 13.8347 90.5027C12.9935 82.6285 12.2684 80.2093 11.7915 79.0767C11.2089 77.6918 11.2939 71.5461 14.0897 66.4347C16.088 62.782 18.9562 60.6077 22.6141 59.9724C23.6056 59.7999 24.4272 59.1059 24.7623 58.1567C26.7744 52.4589 32.9275 50.501 35.4257 50.4825L35.632 50.4806C35.897 50.4784 36.1787 50.4761 36.4763 50.4761C40.0473 50.4761 45.7893 50.806 49.4082 55.667C50.9189 57.6984 52.5068 59.3397 54.2617 60.6849C56.4322 62.3504 60.1454 65.7786 60.626 70.028C60.7711 71.3049 60.9154 72.4623 61.0483 73.5218C61.7177 78.8715 61.9946 81.0862 60.6171 83.7699C60.6171 83.7703 60.6167 83.7707 60.6167 83.7711C60.2062 84.5711 59.8738 85.5842 59.6095 86.8114C59.6025 86.8441 59.5947 86.8764 59.5888 86.9094C59.3832 87.8872 59.2195 88.9953 59.1004 90.26C57.7949 90.1524 56.7425 89.1304 56.6048 87.7922C55.4351 76.3889 52.2986 70.2948 47.2818 69.678C44.2748 69.3099 41.728 68.4408 39.0316 67.5209C35.9093 66.4558 32.6811 65.354 28.8466 65.157C26.3421 65.0215 22.7785 67.9098 21.1371 72.9652C20.4584 75.0552 19.3563 77.1745 17.7683 79.443C16.5196 81.2265 15.9051 83.8549 15.7763 87.9655C15.7381 89.1731 14.9395 90.1706 13.8507 90.4986ZM17.46 100.372L17.421 94.9417C19.7043 93.5278 21.2488 91.0352 21.3397 88.1411C21.457 84.4127 22.0096 83.0923 22.3287 82.6362C24.238 79.9083 25.5799 77.3081 26.4315 74.6852C27.2242 72.2445 28.467 71.0908 28.9987 70.7449C31.8829 70.9642 34.4861 71.8523 37.2344 72.79C40.0811 73.7615 43.025 74.7657 46.6045 75.2044C47.8236 75.3539 50.1136 79.0585 51.0677 88.3619C51.3961 91.5607 53.4668 94.1594 56.2819 95.2635L56.3176 100.083C56.3569 105.273 54.3727 110.167 50.7304 113.865C48.8664 115.757 46.6806 117.216 44.2993 118.198C44.2641 118.212 44.2288 118.224 44.1943 118.239C41.9521 119.149 39.5393 119.638 37.0541 119.656H36.8834C26.2508 119.655 17.5375 111.005 17.46 100.372ZM37.3866 135.476L32.2518 127.939V124.782C33.7543 125.067 35.301 125.222 36.883 125.222H37.0741C38.9307 125.208 40.7528 124.987 42.5199 124.582V127.942L37.3866 135.476ZM38.8416 144.884L38.3206 147.324H36.3921L35.8707 144.885L36.025 144.776L37.3562 143.841L38.8416 144.884ZM29.9339 142.251L24.3478 132.809L27.5448 130.917L33.5413 139.719L29.9339 142.251ZM37.3877 175.463L34.8769 172.043L36.6748 152.891H38.1006L39.8985 172.043L37.3877 175.463ZM44.8393 142.251L41.2322 139.719L47.2284 130.917L50.4253 132.809L44.8393 142.251ZM56.8787 130.962C56.6757 130.344 56.2586 129.793 55.6548 129.436L48.086 124.957V122.583C50.5059 121.368 52.7387 119.756 54.6948 117.771C58.1426 114.271 60.4304 109.937 61.3815 105.231L62.8288 105.22C64.9614 105.204 66.9605 104.36 68.4601 102.846C67.3016 106.073 67.3312 109.588 68.557 113.324C67.391 117.096 66.8659 122.996 70.7041 126.141C71.4437 128.084 73.2357 130.536 76.5989 131.22C78.1932 135.954 81.5735 139.82 85.8637 142.112V144.424C81.1909 145.031 76.8264 146.955 73.2209 150.009C70.6496 141.737 64.754 134.807 56.8787 130.962ZM184.434 184.434H125.5V184.062C125.5 182.525 124.254 181.279 122.717 181.279C121.18 181.279 119.934 182.525 119.934 184.062V184.434H70.0662V168.788C70.0662 159.331 77.1367 151.365 86.2641 149.992C87.4104 153.728 90.8924 156.453 95 156.453C99.1076 156.453 102.59 153.729 103.736 149.992C112.863 151.365 119.934 159.331 119.934 168.788V172.141C119.934 173.679 121.18 174.924 122.717 174.924C124.254 174.924 125.5 173.679 125.5 172.141V168.788C125.5 163.817 124.024 159.063 121.29 155.03C122.668 146.896 127.836 139.904 135.156 136.168L141.963 147.675C142.358 148.342 143.014 148.815 143.772 148.978C143.967 149.02 144.163 149.041 144.359 149.041C144.926 149.041 145.486 148.867 145.958 148.535L152.675 143.82L159.392 148.535C159.864 148.867 160.423 149.041 160.991 149.041C161.186 149.041 161.383 149.02 161.577 148.978C162.335 148.815 162.991 148.342 163.386 147.675L170.195 136.166C178.916 140.598 184.434 149.487 184.434 159.426V184.434Z" fill="#6F6F6F"/>
<path d="M152.865 160.127C154.402 160.127 155.648 158.881 155.648 157.344C155.648 155.807 154.402 154.561 152.865 154.561C151.328 154.561 150.081 155.807 150.081 157.344C150.081 158.881 151.328 160.127 152.865 160.127Z" fill="#060606"/>
<path d="M152.865 172.655C154.402 172.655 155.648 171.409 155.648 169.872C155.648 168.335 154.402 167.089 152.865 167.089C151.328 167.089 150.081 168.335 150.081 169.872C150.081 171.409 151.328 172.655 152.865 172.655Z" fill="#060606"/>
<path d="M95.2672 168.699C96.8043 168.699 98.0504 167.453 98.0504 165.916C98.0504 164.379 96.8043 163.133 95.2672 163.133C93.7301 163.133 92.484 164.379 92.484 165.916C92.484 167.453 93.7301 168.699 95.2672 168.699Z" fill="#060606"/>
<path d="M95.2672 180.166C96.8043 180.166 98.0504 178.92 98.0504 177.383C98.0504 175.846 96.8043 174.6 95.2672 174.6C93.7301 174.6 92.484 175.846 92.484 177.383C92.484 178.92 93.7301 180.166 95.2672 180.166Z" fill="#060606"/>
</g>
<defs>
<clipPath id="clip0">
<rect width="190" height="190" fill="white"/>
</clipPath>
</defs>
</svg>
