<svg width="46" height="40" viewBox="0 0 46 40" fill="none" xmlns="http://www.w3.org/2000/svg">
<path d="M16.8182 16.0227H44.0909C44.3409 16.0227 44.5455 15.8182 44.5455 15.5682V12.3864C44.5455 12.1364 44.3409 11.9318 44.0909 11.9318H16.8182C16.5682 11.9318 16.3636 12.1364 16.3636 12.3864V15.5682C16.3636 15.8182 16.5682 16.0227 16.8182 16.0227ZM16.3636 27.6136C16.3636 27.8636 16.5682 28.0682 16.8182 28.0682H44.0909C44.3409 28.0682 44.5455 27.8636 44.5455 27.6136V24.4318C44.5455 24.1818 44.3409 23.9773 44.0909 23.9773H16.8182C16.5682 23.9773 16.3636 24.1818 16.3636 24.4318V27.6136ZM45 0H0.454545C0.204545 0 0 0.204545 0 0.454545V3.63636C0 3.88636 0.204545 4.09091 0.454545 4.09091H45C45.25 4.09091 45.4545 3.88636 45.4545 3.63636V0.454545C45.4545 0.204545 45.25 0 45 0ZM45 35.9091H0.454545C0.204545 35.9091 0 36.1136 0 36.3636V39.5455C0 39.7955 0.204545 40 0.454545 40H45C45.25 40 45.4545 39.7955 45.4545 39.5455V36.3636C45.4545 36.1136 45.25 35.9091 45 35.9091ZM0.193182 20.392L9.07386 27.3864C9.40341 27.6477 9.89205 27.4148 9.89205 26.9943V13.0057C9.89205 12.5852 9.40909 12.3523 9.07386 12.6136L0.193182 19.608C0.133467 19.6544 0.0851468 19.7138 0.0519081 19.7818C0.0186694 19.8497 0.00139063 19.9244 0.00139063 20C0.00139063 20.0756 0.0186694 20.1503 0.0519081 20.2182C0.0851468 20.2862 0.133467 20.3456 0.193182 20.392V20.392Z" fill="white"/>
</svg>
