<svg width="25" height="34" viewBox="0 0 25 34" fill="none" xmlns="http://www.w3.org/2000/svg">
<path d="M12.4985 0C5.6066 0 0 5.61806 0 12.5214C0 22.8607 11.6663 32.7887 12.1631 33.2063C12.2559 33.2854 12.3737 33.3292 12.4956 33.33C12.6176 33.3308 12.7359 33.2884 12.8297 33.2105C13.3265 32.8001 24.9969 23.043 24.9969 12.5214C24.9969 5.61806 19.3903 0 12.4985 0ZM12.5005 32.119C10.5831 30.4056 1.04154 21.4338 1.04154 12.5214C1.04154 6.19091 6.18153 1.04154 12.4985 1.04154C18.8154 1.04154 23.9554 6.19091 23.9554 12.5214C23.9554 21.5848 14.4232 30.4285 12.5005 32.119Z" fill="white"/>
<path d="M12.4985 6.24927C9.05205 6.24927 6.24927 9.05205 6.24927 12.4985C6.24927 15.9449 9.05205 18.7477 12.4985 18.7477C15.9449 18.7477 18.7477 15.9449 18.7477 12.4985C18.7477 9.05205 15.9449 6.24927 12.4985 6.24927ZM12.4985 17.7062C9.62698 17.7062 7.29081 15.37 7.29081 12.4985C7.29081 9.62698 9.62698 7.29081 12.4985 7.29081C15.37 7.29081 17.7062 9.62698 17.7062 12.4985C17.7062 15.37 15.37 17.7062 12.4985 17.7062Z" fill="white"/>
</svg>
