<svg width="34" height="34" viewBox="0 0 34 34" fill="none" xmlns="http://www.w3.org/2000/svg">
<path d="M25.0892 13.2175C25.7692 12.6508 26.5625 11.9708 26.9167 11.22C26.3358 11.5175 25.6417 11.7017 24.8767 11.8008C25.585 11.2908 26.1658 10.625 26.4633 9.71833C25.7267 10.115 24.9758 10.455 24.0408 10.625C21.845 7.97583 16.5892 10.1292 17.5242 14.0958C13.8267 13.8692 11.5742 12.1975 9.70417 10.1433C8.64167 11.8717 9.5625 14.4925 10.8233 15.215C10.1717 15.1725 9.67583 14.9742 9.20833 14.7475C9.265 16.9292 10.4692 17.9775 12.155 18.5442C11.645 18.6433 11.0783 18.6717 10.54 18.5867C11.0642 20.1025 12.155 21.0517 14.025 21.25C12.75 22.3267 10.3983 23.0775 8.5 22.78C10.1292 23.8142 11.985 24.6358 14.5633 24.5225C20.8108 24.2392 24.99 19.7625 25.0892 13.2175ZM17 2.83334C18.8604 2.83334 20.7026 3.19977 22.4214 3.91171C24.1401 4.62365 25.7019 5.66716 27.0173 6.98266C28.3328 8.29815 29.3764 9.85987 30.0883 11.5787C30.8002 13.2974 31.1667 15.1396 31.1667 17C31.1667 20.7572 29.6741 24.3606 27.0173 27.0173C24.3606 29.6741 20.7572 31.1667 17 31.1667C15.1396 31.1667 13.2974 30.8002 11.5787 30.0883C9.85987 29.3763 8.29815 28.3328 6.98265 27.0173C4.32589 24.3606 2.83333 20.7572 2.83333 17C2.83333 13.2428 4.32589 9.63942 6.98265 6.98266C9.63942 4.32589 13.2428 2.83334 17 2.83334Z" fill="white"/>
</svg>
