<svg width="205" height="205" viewBox="0 0 205 205" fill="none" xmlns="http://www.w3.org/2000/svg">
<g clip-path="url(#clip0)">
<path d="M201.368 87.8217C199.243 84.6123 196.021 82.4007 192.275 81.5624C194.692 76.9407 194.593 71.1742 191.515 66.5274C189.325 63.2195 186.022 61.0831 182.426 60.2745C183.068 59.0514 183.542 57.7313 183.825 56.3394C184.61 52.4684 183.844 48.5239 181.662 45.2316C179.536 42.0207 176.314 39.8092 172.568 38.9724C174.985 34.3507 174.886 28.5841 171.808 23.9358C167.309 17.1402 158.115 15.2711 151.318 19.7724L136.601 29.5194C128.755 25.5405 120.411 22.7175 111.751 21.1097C109.014 16.954 105.831 13.0909 102.269 9.63751L96.1798 3.73644C91.7207 -0.586535 84.728 -1.23561 79.551 2.19431C73.4263 6.24983 71.7434 14.5329 75.799 20.6576C75.9585 20.9001 76.1149 21.1441 76.2697 21.388C56.3112 25.4264 38.1215 36.018 24.6584 51.5378C10.0488 68.3808 2.00189 89.9519 2.00189 112.277C2.00189 116.556 2.29437 120.843 2.87306 125.016C7.3321 157.455 28.9407 185.411 59.2641 197.975C70.5094 202.635 82.4414 205 94.7237 205C114.175 205 132.795 199.043 148.572 187.774C164.005 176.748 175.553 161.531 181.967 143.77C182.566 142.115 181.707 140.287 180.052 139.69C178.396 139.092 176.569 139.949 175.972 141.605C169.999 158.145 159.243 172.315 144.865 182.586C130.177 193.079 112.838 198.625 94.7237 198.625C85.3583 198.625 76.2134 197.147 67.4611 194.232L93.3958 177.057C93.3974 177.056 93.3989 177.056 93.4005 177.054C93.4021 177.054 93.4021 177.053 93.4036 177.051L114.957 162.778H114.959C116.894 161.495 118.215 159.537 118.678 157.261C119.141 154.986 118.691 152.665 117.408 150.73L117.124 150.298L121.311 147.525C124.298 145.547 127.89 144.771 131.428 145.339C136.55 146.161 141.752 145.035 146.075 142.172L180.803 119.174C180.565 122.186 180.174 125.182 179.628 128.127C179.306 129.858 180.45 131.522 182.181 131.843C182.376 131.88 182.574 131.898 182.766 131.898C184.272 131.898 185.611 130.825 185.896 129.29C186.779 124.537 187.287 119.668 187.419 114.793L197.205 108.312C200.497 106.132 202.745 102.799 203.53 98.9294C204.317 95.0584 203.549 91.1139 201.368 87.8217ZM130.412 33.6172L120.672 40.0672L118.755 34.9012C117.954 32.746 117.036 30.633 116.019 28.5654C120.96 29.8182 125.771 31.5073 130.412 33.6172ZM29.474 55.7153C42.4132 40.7992 60.0382 30.7722 79.3196 27.2954C82.4132 34.7902 83.1546 43.164 81.3059 51.1452L73.5342 84.7202C72.3127 83.4158 70.7268 82.5165 68.9407 82.1536C66.6635 81.6891 64.344 82.1411 62.4093 83.4236L40.3956 98.0004C40.3941 98.0004 40.3941 98.0004 40.3925 98.0019C40.3925 98.0019 40.3909 98.0019 40.3909 98.0035L8.64119 119.029C8.46758 116.789 8.37687 114.532 8.37687 112.277C8.37687 91.4877 15.8701 71.3994 29.474 55.7153ZM112.432 155.99C112.308 156.597 111.955 157.121 111.437 157.463H111.438L92.5075 169.999L57.3716 117.599C56.3909 116.137 54.4109 115.747 52.9485 116.728C51.4877 117.709 51.0967 119.687 52.0774 121.15L87.1913 173.519L60.1665 191.417C33.3122 179.671 14.095 154.865 9.47481 126.001L41.2621 105.02L44.9204 110.478C45.5366 111.395 46.5438 111.89 47.5714 111.89C48.1814 111.89 48.7991 111.717 49.3434 111.351C50.8058 110.37 51.1968 108.39 50.2162 106.928L46.5829 101.508L65.9299 88.7382C66.4445 88.3957 67.0623 88.2768 67.6691 88.4004C68.276 88.5239 68.7999 88.8774 69.1424 89.3935L112.094 154.251C112.435 154.765 112.555 155.383 112.432 155.99ZM197.283 97.6594C196.836 99.8615 195.558 101.757 193.684 102.997L182.497 110.406C182.494 110.408 182.491 110.411 182.486 110.412L142.555 136.857C139.567 138.836 135.975 139.613 132.437 139.044C127.316 138.222 122.114 139.347 117.79 142.211L113.603 144.984L78.4249 91.8647L87.5182 52.5841C89.8596 42.4649 88.6255 31.806 84.1649 22.5204C84.1243 22.4234 84.0805 22.3296 84.0304 22.2373C83.1733 20.4825 82.2005 18.7793 81.1135 17.137C78.9989 13.9433 79.8764 9.625 83.0717 7.50887C85.7712 5.72119 89.4185 6.05902 91.7426 8.31278L97.8314 14.2154C104.418 20.6013 109.587 28.5216 112.777 37.1206L116.093 46.0528C116.099 46.07 116.105 46.084 116.112 46.0997C116.12 46.12 116.129 46.1419 116.137 46.1622C116.16 46.217 116.182 46.267 116.206 46.3093C116.27 46.4438 116.34 46.5767 116.425 46.7034C117.397 48.172 119.374 48.574 120.841 47.6011L154.839 25.0885C158.705 22.5282 163.933 23.5902 166.494 27.4565C169.054 31.3228 167.992 36.5513 164.126 39.1116L161.174 41.0666C161.174 41.0666 161.173 41.0666 161.171 41.0682L154.588 45.4287C154.579 45.435 154.573 45.4412 154.563 45.4459C154.526 45.4725 154.49 45.4975 154.46 45.5226C153.099 46.522 152.748 48.4223 153.691 49.8455C154.662 51.3141 156.64 51.7161 158.109 50.7433L164.697 46.3796C166.569 45.1425 168.81 44.7061 171.011 45.1534C173.211 45.6008 175.108 46.8786 176.347 48.7523C177.587 50.6244 178.025 52.8688 177.578 55.0694C177.131 57.2715 175.853 59.1671 173.979 60.4074L164.442 66.7245C162.973 67.6958 162.571 69.6727 163.544 71.1413C164.157 72.0672 165.171 72.5693 166.204 72.5693C166.808 72.5693 167.42 72.3972 167.961 72.0391L169.437 71.0616L174.545 67.6786C178.413 65.1182 183.64 66.1802 186.201 70.0465C188.761 73.9143 187.699 79.1413 183.833 81.7032L179.069 84.8578C179.044 84.8735 179.018 84.8907 178.993 84.9079L174.295 88.0187C172.827 88.99 172.425 90.9685 173.397 92.4371C174.01 93.363 175.024 93.8651 176.058 93.8651C176.661 93.8651 177.273 93.693 177.814 93.3349L179.291 92.3574C179.291 92.3574 179.291 92.3558 179.292 92.3558L184.4 88.9744C186.272 87.7341 188.515 87.2962 190.717 87.745C192.92 88.1908 194.815 89.4702 196.055 91.3423C197.294 93.2144 197.731 95.4588 197.283 97.6594Z" fill="#6F6F6F"/>
</g>
<defs>
<clipPath id="clip0">
<rect width="205" height="205" fill="white"/>
</clipPath>
</defs>
</svg>
