<svg width="213" height="59" viewBox="0 0 213 59" fill="none" xmlns="http://www.w3.org/2000/svg">
<path d="M22.4364 23.3017C22.6263 24.1958 22.6475 25.0284 22.4998 25.7996C22.3619 26.5557 22.1027 27.2597 21.722 27.9116C21.3414 28.5636 20.858 29.1594 20.2718 29.6993C19.6981 30.2365 19.0677 30.7208 18.3806 31.1523C17.6936 31.5838 16.9698 31.9647 16.2094 32.295C15.4587 32.6102 14.7174 32.878 13.9855 33.0984L13.9143 32.7631C14.6732 32.3034 15.4372 31.7452 16.2062 31.0887C16.9876 30.4295 17.665 29.708 18.2383 28.9243C18.8213 28.1255 19.2569 27.2738 19.5448 26.369C19.8426 25.4491 19.8873 24.4987 19.6789 23.5176C19.452 22.4497 18.9794 21.661 18.2612 21.1517C17.543 20.6424 16.6375 20.5038 15.5447 20.7359C14.6879 20.918 13.8663 21.2353 13.0799 21.6879C12.2908 22.1281 11.5628 22.6721 10.8958 23.32C10.2261 23.9554 9.62456 24.6673 9.09116 25.4555C8.57018 26.241 8.14933 27.0702 7.82858 27.943C7.50521 28.8034 7.29041 29.6862 7.18419 30.5913C7.08774 31.4814 7.13054 32.3548 7.31258 33.2117C7.51044 34.143 7.88496 34.959 8.43613 35.6596C8.9873 36.3601 9.63797 36.9487 10.3882 37.4253C11.1383 37.9019 11.9557 38.2668 12.8401 38.5202C13.7219 38.7612 14.5951 38.9001 15.4595 38.9371L15.5308 39.2724C15.1677 39.5183 14.7916 39.8253 14.4026 40.1935C14.0136 40.5616 13.6276 40.9746 13.2446 41.4323C12.8741 41.8874 12.5252 42.3834 12.198 42.9201C11.8831 43.4542 11.617 44.0039 11.3997 44.5693C11.1824 45.1346 11.0324 45.7116 10.9498 46.3002C10.8769 46.8737 10.8999 47.4399 11.0186 47.9987C11.3246 49.4392 11.9107 50.4568 12.7768 51.0516C13.6554 51.6436 14.8149 51.7866 16.2554 51.4806C17.0626 51.3091 17.8088 51.0338 18.494 50.6546C19.1942 50.2852 19.8175 49.8284 20.3637 49.284C20.925 48.7494 21.412 48.1398 21.8246 47.4551C22.2373 46.7705 22.5684 46.0382 22.818 45.2584L23.0839 45.3187C22.9386 46.284 22.635 47.2376 22.1732 48.1793C21.7113 49.121 21.129 49.9845 20.4263 50.7697C19.7235 51.555 18.9124 52.227 17.9928 52.7858C17.0883 53.3543 16.1144 53.7494 15.0713 53.971C14.2641 54.1425 13.494 54.1828 12.7608 54.092C12.0277 54.0011 11.364 53.7787 10.7696 53.4248C10.1753 53.0708 9.66278 52.5827 9.23206 51.9604C8.80398 51.3505 8.49497 50.5985 8.30502 49.7044C7.92775 47.9286 8.12443 46.258 8.89505 44.6925C9.66303 43.1147 10.9952 41.6571 12.8915 40.3198C11.8484 40.5414 10.8627 40.5756 9.93466 40.4223C9.00658 40.2691 8.16744 39.9542 7.41727 39.4776C6.67687 38.986 6.048 38.3473 5.53068 37.5617C5.01335 36.7761 4.64388 35.8617 4.42228 34.8186C4.20594 33.8003 4.17852 32.7548 4.34001 31.6822C4.5015 30.6096 4.80882 29.5515 5.26198 28.5078C5.72756 27.4614 6.3132 26.461 7.0189 25.5064C7.73702 24.5491 8.53966 23.6842 9.42681 22.9117C10.3237 22.1242 11.2843 21.4529 12.3085 20.8978C13.3451 20.3402 14.4036 19.9466 15.484 19.717C16.2788 19.5482 17.0548 19.4742 17.812 19.495C18.5665 19.5035 19.2517 19.6434 19.8674 19.9149C20.493 20.1714 21.0269 20.5771 21.4693 21.1321C21.9241 21.6844 22.2464 22.4076 22.4364 23.3017ZM30.6253 33.1649C30.6543 33.3015 30.631 33.4363 30.5554 33.5691C30.4771 33.6896 30.3697 33.7643 30.2331 33.7933C30.1214 33.8171 29.9968 33.8111 29.8594 33.7754C29.7194 33.7273 29.5595 33.6769 29.3796 33.6242C29.2121 33.569 29.0162 33.5327 28.7919 33.5155C28.5774 33.4832 28.3397 33.4947 28.0789 33.5501C27.4704 33.6794 26.9649 33.988 26.5624 34.4758C26.1697 34.9486 25.865 35.5 25.6484 36.1301C25.4443 36.7575 25.3225 37.4063 25.2832 38.0766C25.2439 38.7469 25.2784 39.3366 25.3865 39.8457C25.463 40.2058 25.5693 40.5532 25.7052 40.8877C25.8386 41.2098 26.0101 41.4978 26.2198 41.7518C26.4392 41.9907 26.704 42.168 27.0142 42.2838C27.3217 42.3872 27.6865 42.3941 28.1087 42.3044C28.5558 42.2094 28.9671 42.0377 29.3426 41.7892C29.7154 41.5283 30.0529 41.2229 30.355 40.8732C30.283 40.4732 30.2567 40.044 30.2761 39.5856C30.3053 39.1122 30.3682 38.6446 30.4648 38.1828C30.5587 37.7086 30.6828 37.2539 30.837 36.8189C31.0035 36.3811 31.1856 35.9855 31.383 35.6321L31.6568 35.7297C31.6099 36.1809 31.6029 36.6367 31.6358 37.0969C31.6687 37.5572 31.7313 38.0046 31.8236 38.4392C31.9186 38.8863 32.0456 39.3006 32.2045 39.6821C32.3634 40.0637 32.5677 40.3837 32.8173 40.6422C33.0642 40.8882 33.3676 41.0639 33.7274 41.1691C34.0846 41.262 34.5177 41.2543 35.0269 41.1461C35.6478 41.0142 36.1887 40.7501 36.6496 40.3536C37.1105 39.9572 37.4934 39.4995 37.7985 38.9804L37.9633 39.0233C37.8321 39.5054 37.6287 39.9834 37.353 40.4573C37.0773 40.9312 36.7502 41.377 36.3717 41.7949C36.003 42.1977 35.5901 42.545 35.133 42.8368C34.6758 43.1286 34.2051 43.3259 33.7208 43.4288C33.0378 43.5739 32.4368 43.4939 31.9177 43.1889C31.4013 42.8963 30.999 42.4691 30.711 41.9073C30.3002 42.5397 29.8102 43.1045 29.241 43.6018C28.6815 44.0841 28.0479 44.4004 27.34 44.5508C26.8185 44.6616 26.3317 44.6612 25.8797 44.5495C25.4427 44.4477 25.0533 44.2643 24.7115 43.9995C24.3698 43.7347 24.0782 43.4008 23.8368 42.9978C23.6053 42.5798 23.438 42.1286 23.3351 41.6443C23.2164 41.0855 23.182 40.4958 23.2318 39.8752C23.2915 39.2395 23.4158 38.6031 23.6049 37.9659C23.8065 37.3261 24.0705 36.7054 24.3969 36.1039C24.7234 35.5025 25.1003 34.9552 25.5277 34.462C25.9674 33.9663 26.4492 33.5459 26.973 33.2011C27.4967 32.8562 28.0566 32.6204 28.6527 32.4938C28.7893 32.4648 28.9609 32.4478 29.1675 32.4428C29.3715 32.4254 29.5745 32.4342 29.7766 32.4692C29.9787 32.5041 30.1564 32.5767 30.3096 32.6869C30.4752 32.7945 30.5804 32.9538 30.6253 33.1649ZM49.3818 36.5974C49.2062 37.115 48.9744 37.612 48.6863 38.0885C48.4106 38.5624 48.0808 38.9958 47.6971 39.3889C47.3258 39.7792 46.9027 40.1092 46.4278 40.3788C45.9556 40.6608 45.4463 40.8599 44.8999 40.976C44.0927 41.1475 43.3497 41.1626 42.6707 41.0213C42.0042 40.8773 41.3986 40.6231 40.8539 40.2586C40.3066 39.8817 39.818 39.4145 39.3881 38.8569C38.9581 38.2993 38.585 37.7037 38.2687 37.07C37.9497 36.4239 37.6778 35.7549 37.4529 35.0629C37.228 34.3709 37.047 33.702 36.9098 33.0563C36.7832 32.4602 36.6787 31.8464 36.5965 31.215C36.5116 30.5711 36.4489 29.9095 36.4085 29.2303C36.0261 29.3245 35.6487 29.4111 35.2762 29.4903C34.916 29.5668 34.5559 29.6433 34.1958 29.7198C33.9598 29.7699 33.6915 29.8204 33.3908 29.8713C33.0902 29.9222 32.8002 29.9319 32.521 29.9004C32.2417 29.8689 31.9967 29.7846 31.7859 29.6477C31.5751 29.5108 31.4341 29.2747 31.3629 28.9394C31.3233 28.7531 31.3289 28.5962 31.3797 28.4686C31.418 28.3437 31.494 28.2432 31.6076 28.1671C31.7062 28.0813 31.8349 28.015 31.9937 27.9683C32.1374 27.9118 32.29 27.8664 32.4515 27.8321C32.6377 27.7925 33.0852 27.7299 33.7938 27.6443C34.5024 27.5586 35.3551 27.4488 36.352 27.3149C36.3511 25.7836 36.4425 24.2587 36.626 22.7401C36.822 21.2189 37.1065 19.8087 37.4794 18.5095L37.7402 18.4541C37.6303 19.8921 37.5666 21.3333 37.549 22.7777C37.5438 24.2194 37.6171 25.6639 37.7688 27.1113C38.6885 26.9808 39.6318 26.8388 40.5985 26.6853C41.575 26.5168 42.5228 26.3349 43.4417 26.1397C44.7953 25.8521 45.8917 25.6062 46.7308 25.402C47.57 25.1978 48.2278 25.0256 48.7042 24.8854C49.2649 24.7144 49.6827 24.5737 49.9578 24.4634L50.0996 24.7642C49.3914 25.0963 48.5764 25.4447 47.6545 25.8093C46.7299 26.1614 45.7407 26.5144 44.6867 26.8681C43.63 27.2094 42.5335 27.5461 41.3971 27.8784C40.2607 28.2107 39.1265 28.523 37.9946 28.8154C38.0225 29.0691 38.0642 29.3263 38.1196 29.587C38.1723 29.8354 38.2251 30.0838 38.2779 30.3321C38.4045 30.9282 38.5692 31.5811 38.7718 32.2908C38.987 32.9979 39.2468 33.7019 39.5515 34.4029C39.8535 35.0915 40.2026 35.7571 40.5987 36.3998C41.0046 37.0274 41.4692 37.5646 41.9924 38.0116C42.5254 38.4434 43.1181 38.7588 43.7703 38.9577C44.4226 39.1566 45.1461 39.1716 45.9408 39.0027C46.6735 38.8471 47.2974 38.5458 47.8124 38.0989C48.3399 37.6494 48.8205 37.132 49.2542 36.5467L49.3818 36.5974Z" fill="#FFFCFC"/>
<path d="M75.3997 23.0427C75.4086 23.182 75.366 23.312 75.2719 23.4325C75.177 23.5403 75.0599 23.5987 74.9206 23.6076C74.8065 23.6149 74.6841 23.5909 74.5534 23.5356C74.4219 23.4677 74.2709 23.3947 74.1005 23.3165C73.9428 23.2375 73.7543 23.1733 73.5348 23.1237C73.3273 23.0606 73.0904 23.0376 72.8244 23.0546C72.2036 23.0943 71.6587 23.3263 71.1897 23.7506C70.7325 24.1615 70.3511 24.6629 70.0455 25.2549C69.7525 25.8461 69.538 26.4704 69.4019 27.1279C69.2658 27.7854 69.2144 28.3738 69.2476 28.8933C69.2711 29.2607 69.3258 29.6197 69.4119 29.9704C69.4971 30.3085 69.625 30.6183 69.7957 30.9C69.9782 31.1682 70.2145 31.3821 70.5045 31.5416C70.7938 31.6885 71.1538 31.7482 71.5846 31.7207C72.0407 31.6915 72.4725 31.5812 72.8801 31.3898C73.2868 31.1857 73.665 30.9326 74.0146 30.6303C74.0013 30.2241 74.0376 29.7956 74.1233 29.3449C74.2208 28.8807 74.3508 28.4272 74.5133 27.9843C74.675 27.5287 74.8637 27.0968 75.0793 26.6887C75.3076 26.2797 75.5451 25.9147 75.7917 25.5937L76.0485 25.7299C75.9366 26.1696 75.8636 26.6195 75.8294 27.0796C75.7952 27.5398 75.7923 27.9916 75.8206 28.435C75.8498 28.8911 75.9153 29.3194 76.0172 29.72C76.1192 30.1206 76.2749 30.4668 76.4844 30.7587C76.693 31.038 76.9677 31.2558 77.3085 31.4121C77.6484 31.5557 78.0781 31.611 78.5975 31.5778C79.231 31.5373 79.8045 31.3543 80.318 31.0289C80.8315 30.7035 81.2768 30.3061 81.6538 29.8368L81.8107 29.9031C81.611 30.3611 81.3404 30.8046 80.9989 31.2335C80.6574 31.6624 80.2691 32.0561 79.8341 32.4147C79.4109 32.7597 78.952 33.0435 78.4574 33.2659C77.9627 33.4883 77.4684 33.6154 76.9743 33.6469C76.2774 33.6915 75.6944 33.5252 75.225 33.1481C74.7565 32.7837 74.4204 32.3027 74.2169 31.7051C73.7187 32.2712 73.152 32.759 72.5167 33.1686C71.8932 33.5646 71.2204 33.7857 70.4983 33.8319C69.9661 33.8659 69.4846 33.7949 69.0535 33.6189C68.6359 33.4547 68.2773 33.2169 67.9775 32.9053C67.6777 32.5937 67.4376 32.2211 67.2572 31.7873C67.0887 31.3401 66.9887 30.8695 66.9571 30.3754C66.9207 29.8053 66.9721 29.2168 67.1114 28.61C67.2626 27.9897 67.4779 27.3781 67.7574 26.775C68.0496 26.1712 68.4008 25.5953 68.811 25.0476C69.2212 24.4998 69.6735 24.0129 70.1679 23.5869C70.6749 23.1602 71.2125 22.8142 71.7807 22.5489C72.3489 22.2836 72.9371 22.1315 73.5452 22.0926C73.6846 22.0837 73.8569 22.0918 74.062 22.1168C74.2663 22.1292 74.466 22.1673 74.6609 22.2312C74.8558 22.2951 75.021 22.3926 75.1566 22.5239C75.3049 22.6544 75.3859 22.8273 75.3997 23.0427ZM97.3182 28.912C97.1066 29.3835 96.8748 29.8372 96.6228 30.2731C96.3835 30.7082 96.1029 31.095 95.781 31.4336C95.4592 31.7722 95.089 32.0503 94.6704 32.2679C94.2518 32.4854 93.7637 32.612 93.2063 32.6477C92.5728 32.6882 92.0179 32.5646 91.5415 32.277C91.066 32.0021 90.6473 31.6218 90.2855 31.1361C89.9356 30.6369 89.6382 30.0643 89.3934 29.4185C89.1613 28.7718 88.96 28.1104 88.7896 27.4344C88.6191 26.7583 88.4812 26.0929 88.3757 25.4382C88.2695 24.7707 88.174 24.1726 88.0893 23.6437C87.8607 23.8491 87.5928 24.2352 87.2856 24.8018C86.9775 25.3558 86.6692 26.0052 86.3606 26.75C86.052 27.4949 85.7601 28.3022 85.485 29.1721C85.2225 30.0412 85.0162 30.894 84.8661 31.7305C84.8395 31.9103 84.7879 32.098 84.7113 32.2938C84.6474 32.4887 84.557 32.6662 84.44 32.8263C84.3365 32.9983 84.2057 33.1402 84.0475 33.2521C83.89 33.3767 83.71 33.4454 83.5073 33.4584C83.1779 33.4794 82.9299 33.3808 82.7632 33.1625C82.6093 32.9433 82.4914 32.6901 82.4094 32.4027C81.9391 30.8172 81.581 29.2944 81.3351 27.8345C81.1018 26.3737 80.9382 24.9085 80.8442 23.4389C80.8215 23.0841 80.8591 22.7764 80.957 22.5158C81.0666 22.2416 81.2176 22.0157 81.4098 21.838C81.6011 21.6477 81.8338 21.5056 82.1076 21.4118C82.3807 21.3053 82.6693 21.2423 82.9733 21.2229C83.0113 21.2205 83.0684 21.2168 83.1444 21.212C83.2331 21.2063 83.3162 21.2137 83.3939 21.2342C83.4707 21.242 83.5356 21.2633 83.5888 21.298C83.6419 21.3328 83.6641 21.3823 83.6555 21.4464C83.4322 23.1272 83.3819 24.8287 83.5047 26.5509C83.6267 28.2605 83.8206 29.9019 84.0865 31.475C84.1854 30.8326 84.3424 30.1038 84.5574 29.2887C84.7843 28.46 85.0492 27.6289 85.3522 26.7954C85.6669 25.9484 86.0099 25.1441 86.381 24.3826C86.764 23.6075 87.161 22.9525 87.5721 22.4174C87.7721 22.1629 87.9745 21.9464 88.1793 21.7679C88.3961 21.576 88.6691 21.4695 88.9985 21.4484C89.1886 21.4363 89.3494 21.4642 89.4809 21.5321C89.6125 21.6 89.7199 21.6885 89.8032 21.7977C89.8992 21.9061 89.971 22.035 90.0187 22.1847C90.0783 22.3208 90.1252 22.4577 90.1595 22.5955C90.2463 22.9588 90.34 23.4299 90.4406 24.0086C90.5412 24.5874 90.6569 25.2033 90.7877 25.8565C90.9312 26.5088 91.094 27.1662 91.2763 27.8288C91.4578 28.4787 91.6736 29.0692 91.9238 29.6002C92.1732 30.1186 92.4609 30.5391 92.7868 30.8617C93.1127 31.1843 93.4848 31.3323 93.9028 31.3056C94.2449 31.2837 94.5703 31.1993 94.8789 31.0524C95.1994 30.892 95.4989 30.7011 95.7773 30.4798C96.055 30.2457 96.312 29.9876 96.5484 29.7054C96.7839 29.4104 96.9946 29.1235 97.1803 28.8445L97.3182 28.912ZM113.985 27.8468C113.809 28.2778 113.58 28.6741 113.298 29.0356C113.015 29.3844 112.691 29.6914 112.326 29.9564C111.96 30.2087 111.566 30.412 111.144 30.5662C110.721 30.7205 110.275 30.8125 109.807 30.8425C108.818 30.9057 107.96 30.7188 107.233 30.2819C106.518 29.8442 105.901 29.2539 105.383 28.511C105.065 28.913 104.71 29.3173 104.316 29.7241C103.934 30.1175 103.518 30.4748 103.068 30.7962C102.629 31.104 102.169 31.3625 101.686 31.5714C101.203 31.7804 100.715 31.9006 100.221 31.9322C99.6253 31.9703 99.0855 31.8839 98.6014 31.6732C98.1172 31.4624 97.6979 31.1712 97.3434 30.7995C96.9881 30.4151 96.7055 29.9752 96.4958 29.4797C96.2852 28.9716 96.1621 28.4388 96.1265 27.8814C96.073 27.0452 96.2029 26.1909 96.516 25.3186C96.8419 24.4455 97.287 23.6474 97.8514 22.9244C98.4277 22.1879 99.1011 21.5787 99.8718 21.097C100.642 20.6152 101.459 20.3468 102.32 20.2917C102.573 20.2755 102.797 20.2867 102.99 20.3252L102.939 19.527C102.916 19.1596 102.897 18.671 102.884 18.0613C102.87 17.4515 102.878 16.7768 102.907 16.0371C102.935 15.2848 102.98 14.4995 103.042 13.6814C103.117 12.8498 103.223 12.0288 103.362 11.2185C103.513 10.3947 103.698 9.61319 103.918 8.87403C104.137 8.1222 104.407 7.46255 104.727 6.89509C105.046 6.31496 105.423 5.84562 105.858 5.48706C106.293 5.12851 106.796 4.93101 107.366 4.89457C108.037 4.85165 108.595 5.01321 109.038 5.37924C109.481 5.74528 109.842 6.212 110.12 6.77941C110.397 7.33415 110.594 7.93216 110.711 8.57345C110.841 9.21392 110.922 9.78755 110.955 10.2943C110.997 10.9531 110.983 11.7237 110.912 12.606C110.84 13.4756 110.721 14.4055 110.556 15.3956C110.389 16.373 110.18 17.3787 109.928 18.4125C109.676 19.4463 109.396 20.4437 109.089 21.4047C108.781 22.3657 108.438 23.2654 108.059 24.1038C107.692 24.9287 107.311 25.6337 106.916 26.2186C107.112 26.7022 107.338 27.1458 107.592 27.5493C107.86 27.952 108.162 28.2953 108.498 28.5791C108.834 28.8629 109.211 29.0806 109.627 29.232C110.043 29.3708 110.511 29.4236 111.03 29.3904C112.221 29.3143 113.167 28.7768 113.866 27.778L113.985 27.8468ZM105.517 17.7594C105.546 18.2155 105.58 18.7476 105.619 19.3558C105.657 19.9512 105.71 20.5839 105.778 21.2538C105.859 21.9228 105.96 22.6097 106.082 23.3143C106.215 24.0054 106.385 24.6752 106.592 25.3234C107.058 24.2632 107.474 23.1108 107.84 21.8662C108.205 20.6089 108.505 19.3303 108.74 18.0305C108.986 16.7171 109.158 15.415 109.253 14.124C109.349 12.8331 109.36 11.6175 109.287 10.4772C109.272 10.2365 109.237 9.88891 109.183 9.43443C109.128 8.97994 109.03 8.53463 108.887 8.09849C108.744 7.64968 108.548 7.26785 108.299 6.95302C108.049 6.62552 107.728 6.47432 107.335 6.49942C107.031 6.51886 106.768 6.68197 106.546 6.98875C106.323 7.28286 106.138 7.67631 105.991 8.16908C105.844 8.64919 105.726 9.19736 105.638 9.81359C105.563 10.429 105.502 11.069 105.456 11.7334C105.422 12.3971 105.4 13.0536 105.391 13.703C105.394 14.3516 105.401 14.9554 105.411 15.5145C105.433 16.0601 105.451 16.536 105.464 16.9422C105.489 17.335 105.507 17.6074 105.517 17.7594ZM101.476 29.7721C102.198 29.7259 102.854 29.5441 103.444 29.2265C104.047 28.9081 104.588 28.5046 105.065 28.0161C104.795 27.5627 104.554 27.0756 104.342 26.5549C104.143 26.0206 103.962 25.4851 103.801 24.9484C103.651 24.3983 103.52 23.8469 103.409 23.2943C103.31 22.7409 103.225 22.2057 103.154 21.6886C102.991 21.5337 102.792 21.4128 102.558 21.326C102.323 21.2265 102.04 21.1874 101.711 21.2084C101.115 21.2465 100.594 21.4452 100.146 21.8045C99.7101 22.1504 99.3496 22.5805 99.0645 23.0949C98.7785 23.5966 98.5718 24.1441 98.4443 24.7374C98.3161 25.3181 98.2685 25.8681 98.3017 26.3876C98.3325 26.869 98.4127 27.3282 98.5424 27.7651C98.684 28.1886 98.8857 28.5574 99.1474 28.8714C99.4084 29.1727 99.7286 29.4067 100.108 29.5733C100.5 29.739 100.956 29.8053 101.476 29.7721Z" fill="#FFFCFC"/>
<path d="M149.393 30.0336C149.121 30.4115 148.805 30.7431 148.446 31.0284C148.089 31.3012 147.703 31.5238 147.286 31.696C146.872 31.8557 146.441 31.961 145.994 32.0119C145.547 32.0629 145.092 32.048 144.629 31.9673C143.654 31.7972 142.863 31.4146 142.258 30.8194C141.666 30.2264 141.205 29.5081 140.875 28.6645C140.472 28.9808 140.031 29.2906 139.553 29.5939C139.09 29.8868 138.602 30.1367 138.089 30.3437C137.59 30.5403 137.082 30.6837 136.564 30.7737C136.046 30.8638 135.543 30.8663 135.055 30.7812C134.467 30.6788 133.962 30.4684 133.541 30.1501C133.12 29.8318 132.78 29.4504 132.523 29.006C132.267 28.5491 132.096 28.0552 132.008 27.5244C131.922 26.9811 131.927 26.4343 132.023 25.8841C132.167 25.0586 132.494 24.2585 133.002 23.4838C133.524 22.7113 134.143 22.0397 134.861 21.469C135.594 20.888 136.392 20.4536 137.254 20.1657C138.116 19.8779 138.972 19.8081 139.822 19.9563C140.072 20 140.287 20.0631 140.466 20.1459L140.603 19.3579C140.666 18.9953 140.763 18.5159 140.893 17.92C141.022 17.324 141.188 16.6699 141.389 15.9576C141.593 15.2328 141.821 14.48 142.073 13.6992C142.34 12.908 142.636 12.1349 142.961 11.3797C143.3 10.6141 143.664 9.89782 144.051 9.23073C144.44 8.55114 144.856 7.97298 145.3 7.49625C145.746 7.00701 146.223 6.63906 146.73 6.39238C147.237 6.14571 147.772 6.07144 148.334 6.16956C148.997 6.28513 149.501 6.57275 149.846 7.03241C150.192 7.49208 150.433 8.03028 150.57 8.64702C150.71 9.25124 150.761 9.87882 150.725 10.5297C150.701 11.1828 150.646 11.7595 150.559 12.2598C150.445 12.9101 150.251 13.6559 149.975 14.497C149.702 15.3257 149.369 16.2019 148.976 17.1257C148.585 18.0369 148.146 18.9655 147.659 19.9116C147.172 20.8576 146.666 21.7617 146.142 22.624C145.618 23.4862 145.074 24.2805 144.509 25.0068C143.959 25.7227 143.423 26.3188 142.902 26.795C142.98 27.3111 143.095 27.7951 143.248 28.2471C143.414 28.7012 143.627 29.1056 143.887 29.4603C144.147 29.815 144.462 30.1147 144.832 30.3596C145.204 30.592 145.646 30.7529 146.159 30.8423C147.335 31.0472 148.379 30.7461 149.293 29.939L149.393 30.0336ZM143.523 18.2433C143.445 18.6935 143.353 19.2188 143.248 19.8191C143.146 20.4069 143.049 21.0345 142.959 21.7017C142.881 22.3711 142.818 23.0625 142.771 23.7759C142.739 24.4791 142.747 25.17 142.796 25.8487C143.498 24.9272 144.173 23.9043 144.82 22.78C145.469 21.6432 146.06 20.4705 146.593 19.2618C147.141 18.0428 147.612 16.817 148.007 15.5844C148.403 14.3517 148.699 13.1726 148.895 12.047C148.936 11.8094 148.984 11.4633 149.037 11.0087C149.091 10.5541 149.099 10.0981 149.063 9.64072C149.029 9.17086 148.928 8.75372 148.759 8.38929C148.593 8.01236 148.316 7.7901 147.928 7.7225C147.628 7.67017 147.334 7.76711 147.046 8.01334C146.761 8.24705 146.489 8.58627 146.231 9.031C145.975 9.46321 145.733 9.96858 145.503 10.5471C145.286 11.1278 145.077 11.7357 144.876 12.3708C144.687 13.008 144.512 13.6412 144.351 14.2703C144.202 14.9016 144.068 15.4902 143.947 16.0362C143.84 16.5718 143.746 17.0386 143.664 17.4366C143.596 17.8243 143.549 18.0932 143.523 18.2433ZM136.781 28.9752C137.494 29.0995 138.174 29.0764 138.823 28.9059C139.483 28.7376 140.103 28.4719 140.682 28.1089C140.525 27.6048 140.405 27.0748 140.321 26.519C140.252 25.9528 140.202 25.39 140.171 24.8304C140.154 24.2605 140.157 23.6938 140.177 23.1304C140.211 22.5692 140.254 22.029 140.305 21.5097C140.184 21.3209 140.019 21.1569 139.811 21.0176C139.606 20.8658 139.34 20.7615 139.015 20.7048C138.427 20.6023 137.874 20.6733 137.354 20.9178C136.85 21.152 136.398 21.4857 136.001 21.9189C135.605 22.3397 135.276 22.8235 135.013 23.3705C134.752 23.9049 134.577 24.4286 134.488 24.9413C134.405 25.4166 134.375 25.8818 134.399 26.337C134.438 26.7818 134.547 27.1876 134.728 27.5542C134.911 27.9083 135.168 28.2107 135.498 28.4616C135.84 28.7146 136.268 28.8858 136.781 28.9752ZM162.9 32.3887C162.588 32.8497 162.222 33.2498 161.802 33.5889C161.394 33.9303 160.965 34.2099 160.515 34.4277C160.067 34.6331 159.617 34.7738 159.165 34.8497C158.712 34.9381 158.291 34.9486 157.904 34.881C157.178 34.7545 156.587 34.5226 156.131 34.1852C155.674 33.8479 155.326 33.4393 155.088 32.9596C154.849 32.4798 154.711 31.9403 154.674 31.341C154.637 30.7417 154.675 30.1169 154.788 29.4666C154.875 28.9663 155.003 28.4538 155.172 27.9291C155.341 27.4044 155.538 26.9039 155.763 26.4277C155.801 26.357 155.841 26.2738 155.884 26.1781C155.928 26.0699 155.957 25.9783 155.97 25.9032C155.981 25.8407 155.952 25.7841 155.884 25.7335C155.684 25.6214 155.471 25.5134 155.244 25.4094C155.02 25.293 154.796 25.1702 154.574 25.0413C154.364 24.9145 154.163 24.7762 153.97 24.6266C153.789 24.4792 153.639 24.3048 153.52 24.1036C153.376 24.8518 153.118 25.5929 152.745 26.3269C152.375 27.0483 151.927 27.7306 151.403 28.3737C150.893 29.0065 150.322 29.5835 149.69 30.1047C149.058 30.626 148.408 31.0605 147.742 31.4082L147.587 31.1879C148.02 30.8509 148.434 30.4335 148.83 29.9355C149.226 29.4376 149.583 28.907 149.9 28.3437C150.217 27.7805 150.486 27.2022 150.705 26.609C150.937 26.018 151.1 25.4536 151.194 24.9158C151.242 24.6407 151.261 24.3799 151.253 24.1336C151.246 23.8747 151.231 23.6273 151.208 23.3913C151.197 23.1574 151.184 22.9361 151.169 22.7273C151.156 22.5059 151.168 22.289 151.206 22.0763C151.267 21.7262 151.427 21.4706 151.687 21.3098C151.947 21.1489 152.252 21.099 152.602 21.1601C152.79 21.1928 152.924 21.2741 153.004 21.4041C153.087 21.5216 153.153 21.662 153.202 21.8251C153.251 21.9883 153.311 22.1599 153.383 22.3399C153.454 22.52 153.574 22.6826 153.742 22.8279C153.956 23.0069 154.238 23.1593 154.59 23.285C154.942 23.4108 155.314 23.5336 155.705 23.6534C156.097 23.7732 156.488 23.893 156.88 24.0128C157.271 24.1326 157.612 24.2823 157.903 24.4619C158.209 24.6311 158.443 24.8395 158.606 25.087C158.771 25.322 158.823 25.6146 158.762 25.9648C158.732 26.1399 158.682 26.3117 158.614 26.4803C158.561 26.6385 158.49 26.7872 158.401 26.9264C158.16 27.4255 157.935 27.9404 157.726 28.471C157.532 28.9914 157.388 29.5204 157.295 30.0582C157.214 30.521 157.171 30.9516 157.166 31.3503C157.176 31.7385 157.25 32.0866 157.39 32.3945C157.53 32.7023 157.743 32.9585 158.029 33.1631C158.316 33.3677 158.703 33.5125 159.19 33.5976C159.891 33.7197 160.533 33.6577 161.117 33.4116C161.704 33.153 162.246 32.7772 162.744 32.2842L162.9 32.3887ZM173.743 34.2792C173.335 34.6978 172.864 35.0731 172.329 35.4051C171.807 35.7393 171.245 36.0085 170.642 36.2127C170.052 36.4191 169.441 36.5576 168.811 36.628C168.192 36.7006 167.583 36.6846 166.983 36.5799C166.132 36.4316 165.358 36.1806 164.659 35.8268C163.958 35.4855 163.372 35.0418 162.9 34.4956C162.428 33.9495 162.095 33.3114 161.9 32.5816C161.707 31.8392 161.69 31.0115 161.85 30.0985C162.007 29.198 162.315 28.3884 162.776 27.6697C163.251 26.9407 163.826 26.3386 164.502 25.8636C165.192 25.3783 165.96 25.0355 166.807 24.8352C167.654 24.6349 168.528 24.6132 169.428 24.7702C169.853 24.8444 170.236 24.9756 170.577 25.1639C170.933 25.3419 171.228 25.5737 171.461 25.8593C171.697 26.1324 171.861 26.4508 171.952 26.8147C172.056 27.1807 172.069 27.5826 171.993 28.0203C171.901 28.5456 171.714 28.9898 171.432 29.353C171.15 29.7161 170.807 30.0172 170.405 30.2563C170.002 30.4954 169.558 30.6758 169.073 30.7974C168.601 30.9212 168.109 31.0031 167.6 31.0431C167.103 31.0853 166.611 31.0962 166.125 31.0759C165.654 31.0453 165.224 30.9961 164.836 30.9285L164.386 30.85C164.35 32.0165 164.649 32.9642 165.282 33.6932C165.915 34.4221 166.882 34.9 168.183 35.1268C169.109 35.2882 170.037 35.2826 170.97 35.11C171.914 34.9397 172.793 34.629 173.606 34.178L173.743 34.2792ZM164.428 30.2774L164.897 30.3592C165.347 30.4377 165.822 30.4496 166.321 30.3949C166.823 30.3277 167.285 30.1892 167.708 29.9795C168.146 29.7594 168.526 29.4648 168.848 29.0957C169.17 28.7266 169.377 28.2794 169.468 27.7541C169.558 27.2414 169.519 26.7965 169.353 26.4196C169.199 26.0448 168.854 25.8106 168.316 25.7168C167.766 25.6209 167.267 25.7079 166.821 25.978C166.389 26.2378 166.011 26.5908 165.689 27.0371C165.368 27.471 165.105 27.947 164.899 28.4651C164.707 28.973 164.575 29.4332 164.503 29.846L164.428 30.2774ZM182.906 28.512C182.882 28.6495 182.81 28.7659 182.691 28.861C182.573 28.9436 182.446 28.9729 182.308 28.9489C182.196 28.9293 182.082 28.8773 181.968 28.793C181.856 28.6961 181.726 28.5898 181.579 28.4739C181.444 28.3602 181.276 28.2535 181.074 28.1539C180.887 28.044 180.662 27.9661 180.4 27.9203C179.787 27.8135 179.203 27.9114 178.648 28.214C178.107 28.5064 177.619 28.9045 177.183 29.4084C176.759 29.9145 176.405 30.4712 176.118 31.0786C175.832 31.6859 175.644 32.2459 175.555 32.7587C175.492 33.1214 175.461 33.4833 175.462 33.8443C175.466 34.1929 175.518 34.5241 175.618 34.838C175.732 35.1414 175.912 35.4047 176.156 35.6278C176.403 35.8383 176.739 35.9807 177.164 36.0548C177.615 36.1333 178.06 36.1273 178.501 36.0366C178.945 35.9335 179.372 35.776 179.782 35.5641C179.865 35.166 180 34.758 180.189 34.3399C180.393 33.9114 180.625 33.501 180.887 33.1084C181.151 32.7034 181.435 32.3278 181.741 31.9815C182.058 31.6374 182.375 31.3382 182.69 31.0838L182.907 31.2764C182.696 31.6776 182.519 32.0979 182.378 32.5373C182.237 32.9766 182.129 33.4151 182.052 33.8529C181.974 34.3031 181.937 34.7349 181.942 35.1482C181.948 35.5615 182.018 35.9345 182.153 36.2674C182.291 36.5878 182.507 36.8639 182.801 37.0956C183.098 37.3149 183.503 37.4693 184.016 37.5587C184.641 37.6677 185.242 37.6242 185.817 37.4281C186.392 37.232 186.918 36.95 187.395 36.5821L187.532 36.6833C187.23 37.0818 186.863 37.4495 186.431 37.7865C185.999 38.1234 185.529 38.4153 185.022 38.6619C184.53 38.8983 184.017 39.0666 183.484 39.167C182.951 39.2674 182.441 39.2751 181.953 39.19C181.265 39.0701 180.737 38.7719 180.369 38.2953C179.999 37.8313 179.785 37.285 179.727 36.6563C179.11 37.09 178.445 37.4315 177.731 37.6808C177.033 37.9198 176.327 37.9771 175.614 37.8528C175.089 37.7612 174.637 37.5794 174.259 37.3073C173.892 37.05 173.599 36.7347 173.38 36.3616C173.162 35.9884 173.016 35.5699 172.942 35.106C172.883 34.6318 172.896 34.1508 172.981 33.663C173.079 33.1002 173.267 32.5402 173.544 31.9829C173.837 31.4153 174.189 30.8711 174.602 30.3503C175.028 29.8317 175.504 29.3541 176.031 28.9177C176.558 28.4812 177.112 28.1139 177.692 27.8156C178.285 27.5194 178.889 27.309 179.504 27.1842C180.118 27.0593 180.726 27.0493 181.326 27.1539C181.464 27.1779 181.629 27.2261 181.823 27.2985C182.018 27.3584 182.204 27.4423 182.378 27.55C182.553 27.6578 182.69 27.7913 182.791 27.9507C182.905 28.1123 182.943 28.2993 182.906 28.512ZM208.824 40.3957C208.521 40.8067 208.176 41.1975 207.789 41.5682C207.404 41.9264 206.99 42.2343 206.545 42.4919C206.101 42.7495 205.625 42.9306 205.117 43.0354C204.619 43.1548 204.095 43.1665 203.545 43.0706C202.769 42.9354 202.184 42.5626 201.787 41.9523C201.391 41.342 201.11 40.5906 200.943 39.6982C200.791 38.7954 200.721 37.7972 200.731 36.7036C200.743 35.5975 200.782 34.4895 200.847 33.3796C200.469 33.8422 200.107 34.3331 199.759 34.8523C199.425 35.3612 199.092 35.9024 198.76 36.476C198.428 37.0496 198.093 37.6419 197.755 38.253C197.416 38.8641 197.055 39.4907 196.673 40.1327C196.584 40.2719 196.486 40.4288 196.378 40.6033C196.273 40.7653 196.143 40.9167 195.99 41.0575C195.847 41.2129 195.684 41.3328 195.502 41.417C195.32 41.5012 195.116 41.5237 194.891 41.4844C194.728 41.4561 194.591 41.3935 194.479 41.2966C194.367 41.1998 194.271 41.0864 194.19 40.9564C194.12 40.841 194.059 40.7143 194.005 40.5762C193.967 40.4277 193.932 40.2928 193.902 40.1715C193.75 39.5651 193.65 38.9549 193.603 38.3409C193.555 37.727 193.529 37.0975 193.526 36.4525C193.535 35.8098 193.563 35.1316 193.61 34.4182C193.657 33.7047 193.712 32.9475 193.774 32.1465C193.405 32.7135 193.064 33.2599 192.754 33.7856C192.458 34.3011 192.16 34.8227 191.862 35.3506C191.579 35.8682 191.285 36.4097 190.98 36.9751C190.69 37.5302 190.378 38.1332 190.046 38.784C189.967 38.9379 189.881 39.1031 189.785 39.2798C189.705 39.4462 189.608 39.5968 189.494 39.7316C189.393 39.8686 189.265 39.9751 189.11 40.0512C188.967 40.1295 188.796 40.1511 188.596 40.1162C188.271 40.0595 188.051 39.9118 187.938 39.673C187.823 39.4468 187.74 39.1873 187.688 38.8947C187.603 38.4934 187.55 37.9493 187.528 37.2624C187.508 36.5631 187.51 35.8096 187.535 35.0021C187.56 34.1946 187.614 33.3664 187.698 32.5175C187.781 31.6687 187.886 30.8815 188.013 30.1562C188.135 29.4558 188.412 28.9757 188.844 28.716C189.278 28.4437 189.801 28.361 190.414 28.4678C190.452 28.4744 190.508 28.4842 190.583 28.4973C190.658 28.5104 190.731 28.536 190.801 28.5741C190.874 28.5996 190.932 28.6356 190.976 28.6818C191.032 28.7302 191.048 28.7846 191.025 28.845C190.76 29.7008 190.54 30.5194 190.365 31.3008C190.19 32.0822 190.043 32.8491 189.925 33.6017C189.809 34.3418 189.719 35.08 189.655 35.8163C189.605 36.5422 189.572 37.2902 189.553 38.0602C189.89 37.3844 190.216 36.7388 190.529 36.1233C190.855 35.5101 191.186 34.9041 191.523 34.3055C191.859 33.707 192.209 33.1043 192.572 32.4976C192.951 31.8805 193.353 31.2354 193.78 30.5624C194.008 30.2155 194.222 29.9823 194.423 29.8628C194.637 29.7454 194.888 29.7118 195.176 29.762C195.538 29.8252 195.796 30.0118 195.948 30.3219C196.112 30.6341 196.196 30.9707 196.197 31.3318C196.186 31.9871 196.159 32.659 196.116 33.3474C196.076 34.0234 196.04 34.7066 196.01 35.3973C195.98 36.0879 195.97 36.7755 195.979 37.4602C195.991 38.1323 196.043 38.7923 196.136 39.44C196.5 38.8332 196.868 38.2015 197.24 37.5447C197.615 36.8755 197.995 36.2073 198.382 35.5402C198.769 34.8731 199.166 34.2207 199.574 33.583C199.994 32.9475 200.426 32.3527 200.871 31.7988C201.084 31.5395 201.306 31.3335 201.539 31.1808C201.787 31.0177 202.067 30.9635 202.379 31.018C202.555 31.0485 202.703 31.1195 202.826 31.2311C202.95 31.3301 203.05 31.4571 203.126 31.6121C203.205 31.7546 203.261 31.9126 203.295 32.0861C203.331 32.2471 203.348 32.4111 203.345 32.578C203.344 32.9516 203.318 33.4304 203.268 34.0145C203.23 34.6007 203.199 35.2266 203.173 35.8922C203.159 36.56 203.164 37.2373 203.186 37.9241C203.21 38.5985 203.281 39.223 203.4 39.7979C203.521 40.3603 203.702 40.8364 203.944 41.2264C204.185 41.6165 204.518 41.8485 204.943 41.9227C205.294 41.9837 205.642 41.9801 205.989 41.9117C206.338 41.8308 206.674 41.7154 206.997 41.5655C207.321 41.403 207.626 41.2112 207.909 40.9899C208.207 40.7584 208.479 40.5288 208.725 40.301L208.824 40.3957Z" fill="#FFFCFC"/>
</svg>
