<svg width="30" height="27" viewBox="0 0 30 27" fill="none" xmlns="http://www.w3.org/2000/svg">
<path d="M1 8.6087C1 1 8.6087 1 15.1304 1C21.6522 1 29.2609 1 29.2609 8.6087C29.2609 17.3043 21.6522 7.52174 21.6522 7.52174H8.6087C8.6087 7.52174 1 17.3043 1 8.6087ZM9.69565 10.7826C9.69565 10.7826 4.26087 16.2174 4.26087 26H26C26 16.2174 20.5652 10.7826 20.5652 10.7826H9.69565Z" stroke="white" stroke-width="0.8" stroke-linecap="round" stroke-linejoin="round"/>
<path d="M15.1303 22.7386C17.5315 22.7386 19.4781 20.792 19.4781 18.3908C19.4781 15.9896 17.5315 14.043 15.1303 14.043C12.7291 14.043 10.7825 15.9896 10.7825 18.3908C10.7825 20.792 12.7291 22.7386 15.1303 22.7386Z" stroke="white" stroke-width="0.8" stroke-linecap="round" stroke-linejoin="round"/>
</svg>
