<svg width="207" height="208" viewBox="0 0 207 208" fill="none" xmlns="http://www.w3.org/2000/svg">
<g clip-path="url(#clip0)">
<path d="M184.502 135.848C184.302 135.512 184.092 135.19 183.881 134.906C181.791 131.969 178.682 130.028 175.136 129.442C171.606 128.856 168.029 129.691 165.117 131.792L126.546 159.467H86.2498C84.3488 159.467 82.8 157.914 82.8 156C82.8 154.087 84.3488 152.534 86.2498 152.534H108.675C115.333 152.534 120.75 147.091 120.75 140.4C120.75 140.362 120.746 140.043 120.743 140.009C120.529 133.322 114.916 128.108 108.399 128.267H63.5182C59.5404 128.302 55.666 129.734 52.6127 132.292L35.7422 146.402C34.9555 147.064 34.5002 148.038 34.5002 149.067V190.667C34.5002 192.584 36.0459 194.134 37.9501 194.134H123.548C129.151 194.127 134.609 192.144 138.922 188.556L180.746 153.831C186.428 149.763 188.077 141.867 184.502 135.848ZM176.55 148.335L134.526 183.214C131.441 185.779 127.539 187.193 123.544 187.2H41.4V150.692L57.0317 137.616C58.8672 136.08 61.1891 135.22 63.549 135.2L108.509 135.196C111.369 135.193 113.757 137.367 113.85 140.4C113.85 143.267 111.528 145.6 108.675 145.6H86.2498C80.5436 145.6 75.8998 150.266 75.8998 156C75.8998 161.734 80.5436 166.4 86.2498 166.4H127.65C128.367 166.4 129.068 166.175 129.661 165.755L169.136 137.429C170.557 136.403 172.286 136.004 174.018 136.281C175.746 136.569 177.257 137.512 178.296 138.968C178.399 139.11 178.492 139.256 178.582 139.405C180.328 142.341 179.517 146.2 176.55 148.335Z" fill="#6F6F6F"/>
<path d="M37.8466 142.134H0V149.067H34.3964V201.067H0V208H37.8466C39.7509 208 41.2965 206.451 41.2965 204.534V145.6C41.2965 143.683 39.7509 142.134 37.8466 142.134Z" fill="#6F6F6F"/>
<path d="M17.2501 173.333C11.5439 173.333 6.90015 178 6.90015 183.734C6.90015 189.467 11.5439 194.134 17.2501 194.134C22.9564 194.134 27.6001 189.467 27.6001 183.734C27.6001 178 22.9564 173.333 17.2501 173.333ZM17.2501 187.2C15.3491 187.2 13.8003 185.647 13.8003 183.734C13.8003 181.82 15.3491 180.267 17.2501 180.267C19.1512 180.267 20.7 181.82 20.7 183.734C20.7 185.647 19.1512 187.2 17.2501 187.2Z" fill="#6F6F6F"/>
<path d="M203.55 107.467H3.44987C1.54563 107.467 0 109.016 0 110.933C0 124.311 10.8331 135.2 24.1499 135.2H182.85C196.163 135.2 207 124.311 207 110.933C207 109.016 205.458 107.467 203.55 107.467ZM182.85 128.267H24.1499C15.8181 128.267 8.84925 122.3 7.24823 114.4H199.751C198.151 122.3 191.182 128.267 182.85 128.267Z" fill="#6F6F6F"/>
<path d="M103.5 17.3335C54.0407 17.3335 13.7998 57.7688 13.7998 107.467V110.933C13.7998 112.851 15.3454 114.4 17.2497 114.4H189.75C191.658 114.4 193.2 112.851 193.2 110.933V107.467C193.2 57.7684 152.962 17.3335 103.5 17.3335ZM20.6999 107.467C20.6999 61.592 57.8459 24.2666 103.5 24.2666C149.154 24.2666 186.3 61.592 186.3 107.467H20.6999Z" fill="#6F6F6F"/>
<path d="M46.7545 56.8774C44.3429 59.6022 42.1075 62.5178 40.1099 65.5476L45.861 69.3782C47.6827 66.6185 49.718 63.9596 51.9121 61.4811L46.7545 56.8774Z" fill="#6F6F6F"/>
<path d="M103.5 31.2C84.1249 31.2105 65.6777 38.5665 51.5604 51.9029L56.2871 56.9538C69.1211 44.8272 85.8913 38.1436 103.504 38.1334L103.5 31.2Z" fill="#6F6F6F"/>
<path d="M113.85 0H93.15V6.93347H113.85V0Z" fill="#6F6F6F"/>
<path d="M106.95 3.46655H100.05V20.8H106.95V3.46655Z" fill="#6F6F6F"/>
</g>
<defs>
<clipPath id="clip0">
<rect width="207" height="208" fill="white"/>
</clipPath>
</defs>
</svg>
