<svg width="152" height="149" viewBox="0 0 152 149" fill="none" xmlns="http://www.w3.org/2000/svg">
<path d="M27.2166 8.41619C22.8626 8.41619 18.687 10.1458 15.6083 13.2245C12.5295 16.3033 10.7999 20.4789 10.7999 24.8329V123.333C10.7999 127.687 12.5295 131.863 15.6083 134.941C18.687 138.02 22.8626 139.75 27.2166 139.75H125.717C130.071 139.75 134.246 138.02 137.325 134.941C140.404 131.863 142.133 127.687 142.133 123.333V24.8329C142.133 20.4789 140.404 16.3033 137.325 13.2245C134.246 10.1458 130.071 8.41619 125.717 8.41619H27.2166ZM27.2166 -0.000488281H125.717C134.425 -0.000488281 139.842 3.45873 146 9.61618C152.157 15.7736 148.933 18.9995 151.55 24.8329V123.333C151.55 132.041 151.55 132 148.933 138.55C142.776 144.707 134.425 148.166 125.717 148.166H27.2166C18.5087 148.166 14.1575 148.657 8.00001 142.5C1.84256 136.342 0.38324 132.041 0.38324 123.333V24.8329C2.5 16 1.84255 14.5741 8 8.41668C14.1575 2.25923 18.5087 -0.000488281 27.2166 -0.000488281Z" fill="white"/>
<path d="M113.547 77.5333L78.5418 37.1915C78.2254 36.8265 77.8342 36.5337 77.3947 36.3331C76.9553 36.1324 76.4778 36.0286 75.9947 36.0286C75.5116 36.0286 75.0342 36.1324 74.5947 36.3331C74.1553 36.5337 73.7641 36.8265 73.4477 37.1915L38.4531 77.5333C38.3474 77.6549 38.2788 77.8043 38.2556 77.9638C38.2324 78.1232 38.2555 78.286 38.3222 78.4327C38.3889 78.5794 38.4963 78.7039 38.6317 78.7912C38.7671 78.8786 38.9248 78.9252 39.0859 78.9255H47.6289C48.1141 78.9255 48.5781 78.7145 48.9051 78.3454L71.9922 51.7356V111.125C71.9922 111.589 72.3719 111.969 72.8359 111.969H79.1641C79.6281 111.969 80.0078 111.589 80.0078 111.125V51.7356L103.095 78.3454C103.411 78.7145 103.875 78.9255 104.371 78.9255H112.914C113.631 78.9255 114.021 78.0817 113.547 77.5333Z" fill="white"/>
</svg>
