<svg width="165" height="165" viewBox="0 0 165 165" fill="none" xmlns="http://www.w3.org/2000/svg">
<path d="M90.3455 69.0318V114.884C90.3455 117.061 89.4807 119.148 87.9413 120.688C86.4019 122.227 84.3141 123.092 82.1371 123.092C79.9602 123.092 77.8723 122.227 76.333 120.688C74.7936 119.148 73.9288 117.061 73.9288 114.884V69.0318L53.1125 89.8481C52.3553 90.6321 51.4495 91.2574 50.4481 91.6876C49.4466 92.1178 48.3696 92.3442 47.2797 92.3537C46.1898 92.3632 45.1089 92.1555 44.1001 91.7428C43.0913 91.33 42.1749 90.7205 41.4042 89.9498C40.6335 89.1791 40.024 88.2627 39.6112 87.2539C39.1985 86.2451 38.9908 85.1642 39.0003 84.0743C39.0098 82.9844 39.2362 81.9074 39.6664 80.9059C40.0966 79.9045 40.7219 78.9987 41.5059 78.2415L76.3338 43.4135C77.0944 42.6486 77.9986 42.0416 78.9946 41.6274C79.9905 41.2132 81.0585 41 82.1371 41C83.2158 41 84.2838 41.2132 85.2797 41.6274C86.2757 42.0416 87.1799 42.6486 87.9404 43.4135L122.768 78.2415C123.552 78.9987 124.178 79.9045 124.608 80.9059C125.038 81.9074 125.264 82.9844 125.274 84.0743C125.283 85.1642 125.076 86.2451 124.663 87.2539C124.25 88.2627 123.641 89.1791 122.87 89.9498C122.099 90.7205 121.183 91.33 120.174 91.7428C119.165 92.1555 118.085 92.3632 116.995 92.3537C115.905 92.3442 114.828 92.1178 113.826 91.6876C112.825 91.2574 111.919 90.6321 111.162 89.8481L90.3455 69.0318Z" fill="#333333"/>
<path d="M32.8334 16.4167C28.4794 16.4167 24.3037 18.1463 21.225 21.225C18.1463 24.3037 16.4167 28.4794 16.4167 32.8334V131.333C16.4167 135.687 18.1463 139.863 21.225 142.942C24.3037 146.021 28.4794 147.75 32.8334 147.75H131.333C135.687 147.75 139.863 146.021 142.942 142.942C146.021 139.863 147.75 135.687 147.75 131.333V32.8334C147.75 28.4794 146.021 24.3037 142.942 21.225C139.863 18.1463 135.687 16.4167 131.333 16.4167H32.8334ZM32.8334 0H131.333C140.041 0 148.393 3.45922 154.55 9.61667C160.708 15.7741 164.167 24.1254 164.167 32.8334V131.333C164.167 140.041 160.708 148.393 154.55 154.55C148.393 160.708 140.041 164.167 131.333 164.167H32.8334C24.1254 164.167 15.7741 160.708 9.61667 154.55C3.45922 148.393 0 140.041 0 131.333V32.8334C0 24.1254 3.45922 15.7741 9.61667 9.61667C15.7741 3.45922 24.1254 0 32.8334 0V0Z" fill="#333333"/>
</svg>
